<svg xmlns="http://www.w3.org/2000/svg" viewBox="0 -0.5 128 128" shape-rendering="crispEdges">
<path stroke="#f6ba86" d="M59 24h10M54 25h20M51 26h27M48 27h32M46 28h36M44 29h40M42 30h44M41 31h46M40 32h48M39 33h18M71 33h19M37 34h17M75 34h16M36 35h15M77 35h15M35 36h14M79 36h14M34 37h14M81 37h13M34 38h12M82 38h13M33 39h12M83 39h13M32 40h12M85 40h11M31 41h11M86 41h11M30 42h11M87 42h11M30 43h11M88 43h10M29 44h11M89 44h10M29 45h10M89 45h10M28 46h10M90 46h10M28 47h10M91 47h9M27 48h10M91 48h10M27 49h9M92 49h9M27 50h9M92 50h10M26 51h9M93 51h9M26 52h9M93 52h9M26 53h9M94 53h9M25 54h9M94 54h9M25 55h9M94 55h9M25 56h9M95 56h8M25 57h8M95 57h9M25 58h8M95 58h9M24 59h9M95 59h9M24 60h9M95 60h9M24 61h9M95 61h9M24 62h9M96 62h8M24 63h9M96 63h8M24 64h9M96 64h8M24 65h9M96 65h8M24 66h9M95 66h9M24 67h9M95 67h9M24 68h9M95 68h9M24 69h9M95 69h9M25 70h8M95 70h9M25 71h8M95 71h8M25 72h9M94 72h9M25 73h9M94 73h9M25 74h9M94 74h9M26 75h9M94 75h8M26 76h9M93 76h9M26 77h10M93 77h9M27 78h9M92 78h9M27 79h10M92 79h9M28 80h9M91 80h10M28 81h10M90 81h10M29 82h10M90 82h10M29 83h10M89 83h10M30 84h10M88 84h11M30 85h11M87 85h11M31 86h11M86 86h11M32 87h11M85 87h12M32 88h12M84 88h12M33 89h12M83 89h12M34 90h13M82 90h12M35 91h14M80 91h13M36 92h14M78 92h15M37 93h15M76 93h15M38 94h18M73 94h17M39 95h22M68 95h21M41 96h47M42 97h44M44 98h41M46 99h37M47 100h34M50 101h28M53 102h22M57 103h14" />
</svg>