<svg xmlns="http://www.w3.org/2000/svg" viewBox="0 -0.5 128 128" shape-rendering="crispEdges">
<path stroke="#96b900" d="M36 14h3M32 15h8M30 16h3M34 16h3M28 17h3M32 17h2M63 17h10M27 18h2M31 18h2M58 18h5M72 18h4M26 19h2M30 19h2M56 19h3M75 19h4M26 20h1M29 20h2M52 20h5M67 20h16M25 21h2M29 21h1M49 21h6M64 21h4M78 21h3M82 21h3M25 22h1M28 22h2M46 22h3M52 22h2M62 22h3M80 22h2M84 22h3M25 23h1M28 23h1M44 23h3M51 23h2M59 23h4M82 23h1M86 23h3M22 24h3M28 24h1M43 24h2M50 24h2M57 24h3M82 24h2M88 24h2M21 25h1M23 25h2M28 25h1M41 25h3M50 25h1M55 25h3M84 25h1M89 25h2M20 26h2M23 26h1M28 26h1M40 26h2M49 26h2M54 26h2M84 26h2M90 26h1M20 27h1M23 27h1M28 27h1M39 27h2M48 27h1M52 27h3M56 27h12M85 27h1M90 27h2M19 28h1M23 28h1M28 28h1M38 28h2M47 28h2M50 28h7M67 28h3M85 28h2M91 28h1M19 29h1M23 29h1M28 29h2M38 29h1M46 29h2M49 29h4M69 29h2M86 29h1M91 29h1M19 30h1M24 30h1M29 30h2M38 30h1M45 30h5M70 30h2M86 30h1M91 30h1M19 31h1M24 31h2M30 31h2M37 31h2M43 31h7M71 31h1M86 31h1M91 31h1M19 32h2M25 32h3M31 32h4M37 32h1M41 32h8M58 32h6M71 32h2M86 32h1M91 32h1M20 33h1M27 33h2M34 33h7M42 33h3M47 33h1M54 33h5M63 33h3M72 33h2M85 33h2M90 33h2M20 34h2M29 34h3M33 34h4M40 34h4M46 34h2M50 34h5M64 34h4M73 34h4M83 34h3M87 34h4M21 35h1M31 35h11M45 35h2M48 35h3M67 35h6M76 35h12M21 36h2M41 36h1M44 36h4M72 36h10M22 37h2M40 37h1M43 37h4M23 38h2M40 38h5M24 39h3M39 39h4M26 40h15" />
<path stroke="#dee180" d="M33 16h1M31 17h1M29 18h2M63 18h9M28 19h2M59 19h16M27 20h2M57 20h10M27 21h2M55 21h9M68 21h10M81 21h1M26 22h2M49 22h3M54 22h8M65 22h15M82 22h2M26 23h2M47 23h4M53 23h6M63 23h19M83 23h3M25 24h3M45 24h5M52 24h5M60 24h22M84 24h4M22 25h1M25 25h3M44 25h6M51 25h4M58 25h26M85 25h4M22 26h1M24 26h4M42 26h7M51 26h3M56 26h28M86 26h4M21 27h2M24 27h4M41 27h7M49 27h3M55 27h1M68 27h17M86 27h4M20 28h3M24 28h4M40 28h7M49 28h1M57 28h10M70 28h15M87 28h4M20 29h3M24 29h4M39 29h7M48 29h1M53 29h16M71 29h15M87 29h4M20 30h4M25 30h4M39 30h6M50 30h20M72 30h14M87 30h4M20 31h4M26 31h4M39 31h4M50 31h21M72 31h14M87 31h4M21 32h4M28 32h3M38 32h3M49 32h9M64 32h7M73 32h13M87 32h4M21 33h6M29 33h5M41 33h1M45 33h2M48 33h6M66 33h6M74 33h11M87 33h3M22 34h7M32 34h1M37 34h3M44 34h2M48 34h2M68 34h5M77 34h6M86 34h1M22 35h9M42 35h3M47 35h1M73 35h3M23 36h18M42 36h2M24 37h16M41 37h2M25 38h15M27 39h12" />
</svg>